<svg width="406" height="441" viewBox="0 0 406 441" fill="none" xmlns="http://www.w3.org/2000/svg">
<path d="M124 176.5H120L145 241.5H195V238H148L124 176.5Z" fill="#8495A0"/>
<path d="M119.5 176L48.5 175L73 243L145.5 242L119.5 176Z" fill="#ABB5BA"/>
<path d="M351 440L348 382.5H393.5L391 440H351Z" fill="#C4C4C4"/>
<path d="M390.5 350.5C397.7 362.5 381.833 368.833 372 372C366.5 374.333 354.5 371.4 354.5 363C354.5 352.5 355.5 354 351.5 340.5C348.3 329.7 354.833 319.333 358.5 315.5C356.167 313 351.5 303.7 351.5 286.5C351.5 265 381.5 267.5 375 274.5C368.5 281.5 379 293.5 381.5 305.5C384 317.5 391.5 317.5 388 323C384.5 328.5 381.5 335.5 390.5 350.5Z" fill="#0096FF"/>
<path d="M363.5 281C365.9 298.2 368.833 356.167 370 383H366C364.167 341.833 361.1 263.8 363.5 281Z" fill="#0062A6"/>
<path d="M402 109H305C302.791 109 301 110.791 301 113V168C301 170.209 302.791 172 305 172H402C404.209 172 406 170.209 406 168V113C406 110.791 404.209 109 402 109Z" fill="#0096FF"/>
<path d="M346.534 162.838C344.007 162.124 342.101 160.946 340.816 159.304C339.546 157.677 338.91 155.521 338.91 152.837V148.576C338.91 145.107 337.397 143.372 334.37 143.372V140.267C337.397 140.267 338.91 138.54 338.91 135.085V130.631C338.939 128.018 339.574 125.913 340.816 124.314C342.072 122.7 343.978 121.53 346.534 120.802L347.347 123.264C344.364 124.221 342.872 126.712 342.872 130.738V135.064C342.872 138.304 341.68 140.56 339.296 141.83C341.68 143.115 342.872 145.392 342.872 148.661V153.073C342.915 156.999 344.407 159.433 347.347 160.375L346.534 162.838ZM359.147 160.375C362.045 159.447 363.544 157.084 363.644 153.287V148.576C363.644 145.278 364.936 143.03 367.519 141.83C364.936 140.66 363.644 138.411 363.644 135.085V130.738C363.644 126.712 362.152 124.221 359.168 123.264L359.982 120.802C362.509 121.516 364.407 122.679 365.678 124.292C366.948 125.891 367.591 128.011 367.605 130.652V135.149C367.605 138.561 369.118 140.267 372.145 140.267V143.372C369.118 143.372 367.605 145.107 367.605 148.576V152.901C367.605 155.585 366.956 157.734 365.656 159.347C364.372 160.96 362.48 162.124 359.982 162.838L359.147 160.375Z" fill="white"/>
<path d="M299 0H206C202.134 0 199 3.13401 199 7V58C199 61.866 202.134 65 206 65H299C302.866 65 306 61.866 306 58V7C306 3.13401 302.866 0 299 0Z" fill="#FD9605"/>
<path d="M226.653 35.2092L240.059 40.627V44.8242L222.542 36.7082V33.5818L240.059 25.4873V29.6844L226.653 35.2092ZM247.104 51.6767H243.699L256.719 17.821H260.102L247.104 51.6767ZM278.411 35.0808L264.256 29.5345V25.4658L282.544 33.5604V36.6868L264.256 44.8027V40.6912L278.411 35.0808Z" fill="white"/>
<path d="M238 163.5L240 151C240.5 149.5 241.2 146.8 240 148C238.8 149.2 231.833 148.5 228.5 148C213.7 135.6 215.333 112.833 218 103L260 96V136.5L263 163.5H238Z" fill="#FFB181"/>
<path d="M280 226.5C280 226.5 248 212 245.5 213L203.5 198C202.133 200.538 198.5 206 198.5 206C183.833 196.5 153.8 177.2 151 176C147.5 174.5 143.5 175 143.5 185C143.5 193 154.167 195.333 159.5 195.5C161.9 200.3 179.833 221.167 188.5 231L180 232.5C162.8 221.3 156.667 236.167 156 243H182.5H195.5C216 243.333 259 243.8 267 243C275 242.2 279.333 231.667 280 226.5Z" fill="#FFB181"/>
<path d="M203 199C209.833 179.5 226.6 142.7 239 151.5C238.5 159 241.8 169.5 259 151.5C267.167 149.5 284.6 149.5 289 165.5C294.5 185.5 307 271.5 302 281C284.847 271.956 246.482 255.5 222.284 257.35C220.598 257.604 218.996 257.821 217.5 258C219.02 257.691 220.618 257.477 222.284 257.35C244.085 254.06 279.871 244.45 279.5 227C279.5 227 249 211.5 245.5 213.5C242 215.5 219.5 236 215 227C210.5 218 216 214 215 211C214 208 203 199 203 199Z" fill="#0096FF"/>
<path d="M222.5 398.5C224.5 405.3 207.333 407.667 198.5 408C179.3 386.8 165.833 333.5 161.5 309.5C156.7 306.7 157.833 375 159 409.5C154.6 416.3 139.167 411.333 132 408C126.5 384.5 120 302.5 125 289.5C130 276.5 173.5 264.5 216.5 257C250.9 251 288 269.833 301.5 280.5C302.5 280.333 301.2 283.1 294 291.5C285 302 206 305 201.5 315.5C197 326 220 390 222.5 398.5Z" fill="#2A3541"/>
<path d="M268.5 104.5C269.7 119.3 263 132 259.5 136.5C261 124 261 111.5 255 116.5C249 121.5 253.5 123 250.5 125C247.5 127 247.5 120 247.5 116C247.5 112.8 244.667 111.667 243.5 110.5C247.1 102.1 235.833 100.667 229.5 102C221.667 105 205.9 107.1 205.5 91.4999C205.1 75.8999 219 79.6665 226 83.4999C230.8 79.0999 237 81.6666 239.5 83.4999C248.7 78.2999 252.667 83.3332 253.5 86.4999C268 87.4999 262 95.9999 264 96.9999C265.6 97.7999 267.667 102.333 268.5 104.5Z" fill="#2A3541"/>
<path d="M135.5 417.5C129.5 415.1 114.333 427.167 107.5 433.5C104 444 122 440 135.5 440.5C149 441 162 440 163 433.5C164 427 158.5 413.5 157.5 417.5C156.5 421.5 143 420.5 135.5 417.5Z" fill="#FD9605"/>
<path d="M226 411.5C219.6 414.7 209.667 413.833 205.5 413C173 427 180.5 439.5 184 440C187.5 440.5 232.5 431 235 430C237.5 429 234 407.5 226 411.5Z" fill="#FD9605"/>
<path d="M21 251H9V436H21V251Z" fill="#C4C4C4"/>
<path d="M83 256H71V441H83V256Z" fill="#C4C4C4"/>
<path d="M281 256H269V441H281V256Z" fill="#C4C4C4"/>
<path d="M344 256H332V441H344V256Z" fill="#C4C4C4"/>
<path d="M358.5 242H7.5C3.3579 242 0 245.358 0 249.5C0 253.642 3.3579 257 7.5 257H358.5C362.642 257 366 253.642 366 249.5C366 245.358 362.642 242 358.5 242Z" fill="#C4C4C4"/>
<path d="M168 25H45C42.791 25 41 26.7909 41 29V142C41 144.209 42.791 146 45 146H168C170.209 146 172 144.209 172 142V29C172 26.7909 170.209 25 168 25Z" fill="#112B46"/>
<path d="M133 84H102C101.448 84 101 84.4477 101 85C101 85.5523 101.448 86 102 86H133C133.552 86 134 85.5523 134 85C134 84.4477 133.552 84 133 84Z" fill="#C4C4C4"/>
<path d="M146 72H131C130.448 72 130 72.4477 130 73C130 73.5523 130.448 74 131 74H146C146.552 74 147 73.5523 147 73C147 72.4477 146.552 72 146 72Z" fill="white"/>
<path d="M86 122H71C70.448 122 70 122.448 70 123C70 123.552 70.448 124 71 124H86C86.552 124 87 123.552 87 123C87 122.448 86.552 122 86 122Z" fill="white"/>
<path d="M53 121C53 120.448 52.552 120 52 120C51.448 120 51 120.448 51 121V126C51 126.552 51.448 127 52 127C52.552 127 53 126.552 53 126V121Z" fill="white"/>
<path d="M53 94C53 93.4477 52.552 93 52 93C51.448 93 51 93.4477 51 94V99C51 99.5523 51.448 100 52 100C52.552 100 53 99.5523 53 99V94Z" fill="white"/>
<path d="M53 106C53 105.448 52.552 105 52 105C51.448 105 51 105.448 51 106V111C51 111.552 51.448 112 52 112C52.552 112 53 111.552 53 111V106Z" fill="white"/>
<path d="M53 45C53 44.4477 52.552 44 52 44C51.448 44 51 44.4477 51 45V50C51 50.5523 51.448 51 52 51C52.552 51 53 50.5523 53 50V45Z" fill="white"/>
<path d="M53 57C53 56.4477 52.552 56 52 56C51.448 56 51 56.4477 51 57V62C51 62.5523 51.448 63 52 63C52.552 63 53 62.5523 53 62V57Z" fill="white"/>
<path d="M53 70C53 69.4477 52.552 69 52 69C51.448 69 51 69.4477 51 70V75C51 75.5523 51.448 76 52 76C52.552 76 53 75.5523 53 75V70Z" fill="white"/>
<path d="M53 82C53 81.4477 52.552 81 52 81C51.448 81 51 81.4477 51 82V87C51 87.5523 51.448 88 52 88C52.552 88 53 87.5523 53 87V82Z" fill="white"/>
<path d="M120 46H64C63.448 46 63 46.4477 63 47C63 47.5523 63.448 48 64 48H120C120.552 48 121 47.5523 121 47C121 46.4477 120.552 46 120 46Z" fill="#FF8578"/>
<path d="M138 58H82C81.448 58 81 58.4477 81 59C81 59.5523 81.448 60 82 60H138C138.552 60 139 59.5523 139 59C139 58.4477 138.552 58 138 58Z" fill="#C4C4C4"/>
<path d="M126 95H70C69.448 95 69 95.4477 69 96C69 96.5523 69.448 97 70 97H126C126.552 97 127 96.5523 127 96C127 95.4477 126.552 95 126 95Z" fill="#FF8578"/>
<path d="M149 108H93C92.448 108 92 108.448 92 109C92 109.552 92.448 110 93 110H149C149.552 110 150 109.552 150 109C150 108.448 149.552 108 149 108Z" fill="#FD9605"/>
<path d="M77 58H62C61.448 58 61 58.4477 61 59C61 59.5523 61.448 60 62 60H77C77.552 60 78 59.5523 78 59C78 58.4477 77.552 58 77 58Z" fill="#0096FF"/>
<path d="M103 71H65C64.448 71 64 71.4477 64 72C64 72.5523 64.448 73 65 73H103C103.552 73 104 72.5523 104 72C104 71.4477 103.552 71 103 71Z" fill="#0096FF"/>
</svg>
