<svg width="96" height="96" viewBox="0 0 96 96" fill="none" xmlns="http://www.w3.org/2000/svg">
<mask id="path-1-inside-1" fill="white">
<path d="M81.723 28.53C84.057 27.1825 85.2239 26.5088 85.9953 25.3776C86.8735 24.0899 87.2371 21.9382 86.8309 20.4334C86.474 19.1116 85.7586 18.2832 84.3277 16.6264C79.4299 10.9553 73.2431 6.47654 66.2341 3.59821C56.4135 -0.434695 45.5331 -1.09808 35.2953 1.71187C25.0576 4.52181 16.0403 10.6465 9.65442 19.1276C3.26858 27.6086 -0.125414 37.9675 0.00354121 48.583C0.132496 59.1986 3.77713 69.4719 10.3671 77.7954C16.9571 86.1188 26.1205 92.0227 36.4235 94.5831C46.7265 97.1435 57.5876 96.216 67.3073 91.9457C74.2443 88.898 80.3205 84.2702 85.0791 78.4819C86.4693 76.7908 87.1644 75.9453 87.4891 74.6152C87.8586 73.101 87.4428 70.9587 86.5336 69.6927C85.735 68.5807 84.552 67.9354 82.186 66.6451L77.6744 64.1844C75.2708 62.8735 74.0689 62.218 73.1572 62.0406C71.6272 61.743 71.1221 61.7952 69.6853 62.3995C68.8292 62.7596 67.2323 64.1192 64.0385 66.8383C62.2178 68.3884 60.1702 69.6766 57.9517 70.6512C52.9418 72.8523 47.3436 73.3304 42.0331 72.0106C36.7225 70.6909 31.9993 67.6478 28.6026 63.3576C25.2059 59.0674 23.3274 53.7722 23.2609 48.3005C23.1944 42.8289 24.9438 37.4896 28.2353 33.1181C31.5268 28.7467 36.1746 25.5898 41.4515 24.1414C46.7285 22.6931 52.3366 23.035 57.3985 25.1137C59.64 26.0342 61.7184 27.2723 63.5761 28.7776C66.835 31.4184 68.4645 32.7388 69.3292 33.078C70.7802 33.6472 71.2864 33.6871 72.8087 33.3524C73.7159 33.1529 74.9014 32.4685 77.2725 31.0995L81.723 28.53Z"/>
</mask>
<path d="M81.723 28.53C84.057 27.1825 85.2239 26.5088 85.9953 25.3776C86.8735 24.0899 87.2371 21.9382 86.8309 20.4334C86.474 19.1116 85.7586 18.2832 84.3277 16.6264C79.4299 10.9553 73.2431 6.47654 66.2341 3.59821C56.4135 -0.434695 45.5331 -1.09808 35.2953 1.71187C25.0576 4.52181 16.0403 10.6465 9.65442 19.1276C3.26858 27.6086 -0.125414 37.9675 0.00354121 48.583C0.132496 59.1986 3.77713 69.4719 10.3671 77.7954C16.9571 86.1188 26.1205 92.0227 36.4235 94.5831C46.7265 97.1435 57.5876 96.216 67.3073 91.9457C74.2443 88.898 80.3205 84.2702 85.0791 78.4819C86.4693 76.7908 87.1644 75.9453 87.4891 74.6152C87.8586 73.101 87.4428 70.9587 86.5336 69.6927C85.735 68.5807 84.552 67.9354 82.186 66.6451L77.6744 64.1844C75.2708 62.8735 74.0689 62.218 73.1572 62.0406C71.6272 61.743 71.1221 61.7952 69.6853 62.3995C68.8292 62.7596 67.2323 64.1192 64.0385 66.8383C62.2178 68.3884 60.1702 69.6766 57.9517 70.6512C52.9418 72.8523 47.3436 73.3304 42.0331 72.0106C36.7225 70.6909 31.9993 67.6478 28.6026 63.3576C25.2059 59.0674 23.3274 53.7722 23.2609 48.3005C23.1944 42.8289 24.9438 37.4896 28.2353 33.1181C31.5268 28.7467 36.1746 25.5898 41.4515 24.1414C46.7285 22.6931 52.3366 23.035 57.3985 25.1137C59.64 26.0342 61.7184 27.2723 63.5761 28.7776C66.835 31.4184 68.4645 32.7388 69.3292 33.078C70.7802 33.6472 71.2864 33.6871 72.8087 33.3524C73.7159 33.1529 74.9014 32.4685 77.2725 31.0995L81.723 28.53Z" stroke="#24B9E7" stroke-width="32" stroke-linejoin="round" mask="url(#path-1-inside-1)"/>
<path d="M62.9998 67.4998C57.9466 71.1748 55.9996 71.7403 49.4996 72.4999C47.691 72.7112 44.2464 72.9492 38.4265 70.7738C37.7278 70.5127 37.3785 70.3821 37.094 70.4422C36.8666 70.4903 36.6603 70.6182 36.5162 70.8006C36.3359 71.0287 36.3006 71.3708 36.23 72.0549C35.2233 81.8081 37.3108 97.8276 55 95.5C74 93 86 78.5002 87 76.5C88 74.4998 87.9999 70.4998 85.9998 68.9998C84.0528 67.5397 75.947 61.3418 71.3669 61.4748C71.2643 61.4777 71.2131 61.4792 71.1316 61.4953C71.0759 61.5063 70.99 61.5325 70.9376 61.5545C70.8611 61.5867 70.8027 61.6236 70.686 61.6973C67.0525 63.9933 67.9161 63.9243 62.9998 67.4998Z" fill="black"/>
<circle cx="48" cy="48" r="13" fill="#000C10"/>
</svg>
